<!DOCTYPE svg PUBLIC "-//W3C//DTD SVG 1.1//EN" "http://www.w3.org/Graphics/SVG/1.1/DTD/svg11.dtd">
<!-- Uploaded to: SVG Repo, www.svgrepo.com, Transformed by: SVG Repo Mixer Tools -->
<svg fill="#51bae7" width="64px" height="64px" viewBox="0 0 24.00 24.00" xmlns="http://www.w3.org/2000/svg" stroke="#51bae7" stroke-width="0.00024000000000000003">
<g id="SVGRepo_bgCarrier" stroke-width="0"/>
<g id="SVGRepo_tracerCarrier" stroke-linecap="round" stroke-linejoin="round" stroke="#CCCCCC" stroke-width="0.096"/>
<g id="SVGRepo_iconCarrier">
<path d="M2.305,11.235a1,1,0,0,1,1.414.024l3.206,3.319L14.3,7.289A1,1,0,0,1,15.7,8.711l-8.091,8a1,1,0,0,1-.7.289H6.9a1,1,0,0,1-.708-.3L2.281,12.649A1,1,0,0,1,2.305,11.235ZM20.3,7.289l-7.372,7.289-.263-.273a1,1,0,1,0-1.438,1.39l.966,1a1,1,0,0,0,.708.3h.011a1,1,0,0,0,.7-.289l8.091-8A1,1,0,0,0,20.3,7.289Z"/>
</g>
</svg>